<?xml version="1.0" encoding="UTF-8"?>
<svg width="24" height="24" viewBox="0 0 24 24" fill="none" xmlns="http://www.w3.org/2000/svg">
  <path d="M14.5 4L17 2L19.5 4L17 6L14.5 4Z" fill="currentColor"/>
  <path d="M4.5 14L7 12L9.5 14L7 16L4.5 14Z" fill="currentColor"/>
  <path d="M19.5 19.5L17 17.5L14.5 19.5L17 21.5L19.5 19.5Z" fill="currentColor"/>
  <path fillRule="evenodd" clipRule="evenodd" d="M17 6L19.5 4L22 6.5L19.5 8.5L17 6ZM7 16L9.5 14L12 16.5L9.5 18.5L7 16ZM17 21.5L19.5 19.5L22 22L19.5 24L17 21.5Z" fill="currentColor"/>
  <path d="M2 2L22 22" stroke="currentColor" strokeWidth="2" strokeLinecap="round"/>
</svg> 